<svg width="155" height="152" viewBox="0 0 155 152" fill="none" xmlns="http://www.w3.org/2000/svg">
<path d="M7.54213e-07 75.5349C2.45119e-06 114.357 77.2584 75.5349 77.2584 75.5349C77.2584 75.5349 -9.42767e-07 36.7125 7.54213e-07 75.5349Z" fill="#8140EF"/>
<path d="M154.517 75.5349C154.517 114.357 77.2586 75.5349 77.2586 75.5349C77.2586 75.5349 154.517 36.7125 154.517 75.5349Z" fill="#8140EF"/>
<path d="M38.6293 142.443C72.2504 161.854 77.2585 75.5348 77.2585 75.5348C77.2585 75.5348 5.0081 123.031 38.6293 142.443Z" fill="#8140EF"/>
<path d="M115.888 8.62719C149.509 28.0384 77.2583 75.535 77.2583 75.535C77.2583 75.535 82.2664 -10.784 115.888 8.62719Z" fill="#8140EF"/>
<path d="M115.888 142.443C82.2667 161.854 77.2586 75.5348 77.2586 75.5348C77.2586 75.5348 149.509 123.031 115.888 142.443Z" fill="#8140EF"/>
<path d="M38.629 8.62719C5.00788 28.0384 77.2583 75.535 77.2583 75.535C77.2583 75.535 72.2502 -10.784 38.629 8.62719Z" fill="#8140EF"/>
</svg>
