<svg width="174" height="174" viewBox="0 0 174 174" fill="none" xmlns="http://www.w3.org/2000/svg">
<path d="M90.9886 0.990542C87.9343 -0.330181 86.0654 -0.330181 83.0111 0.990542C72.5075 5.53247 77.4531 44.191 81.6139 68.108C72.5368 45.5927 56.3527 10.1383 45.0331 11.8182C41.7416 12.3066 40.1536 13.2922 38.255 16.025C32.2744 24.6333 52.4013 50.7267 68.2355 68.9818C49.3529 53.9013 22.4644 34.8496 14.1059 41.1746C11.4524 43.1825 10.532 44.8091 10.1775 48.1178C9.03035 58.8235 40.9045 72.4984 63.722 80.8713C39.7397 76.9225 5.26398 73.1286 0.990542 83.0112C-0.330181 86.0655 -0.330181 87.9345 0.990542 90.9888C5.26398 100.871 39.7396 97.0775 63.722 93.1287C40.9045 101.502 9.03033 115.176 10.1775 125.882C10.532 129.191 11.4523 130.818 14.1059 132.825C22.4644 139.15 49.3526 120.099 68.2351 105.018C52.401 123.274 32.2743 149.367 38.2549 157.975C40.1535 160.708 41.7415 161.693 45.033 162.182C56.3526 163.862 72.5369 128.407 81.614 105.891C77.4532 129.808 72.5075 168.467 83.0111 173.009C86.0654 174.33 87.9343 174.33 90.9886 173.009C101.493 168.467 96.5462 129.806 92.3853 105.889C101.462 128.404 117.647 163.862 128.967 162.182C132.259 161.693 133.847 160.708 135.745 157.975C141.726 149.367 121.599 123.274 105.765 105.019C124.648 120.099 151.536 139.15 159.894 132.825C162.548 130.818 163.468 129.191 163.823 125.882C164.97 115.177 133.096 101.502 110.278 93.1288C134.261 97.0775 168.736 100.871 173.009 90.9888C174.33 87.9345 174.33 86.0655 173.009 83.0112C168.736 73.1287 134.261 76.9225 110.278 80.8712C133.096 72.4983 164.97 58.8235 163.823 48.1178C163.468 44.8091 162.548 43.1825 159.894 41.1746C151.536 34.8496 124.647 53.9013 105.765 68.9818C121.599 50.7267 141.726 24.6333 135.745 16.025C133.847 13.2922 132.259 12.3066 128.967 11.8182C117.647 10.1382 101.462 45.5952 92.3854 68.1105C96.5462 44.1936 101.493 5.53263 90.9886 0.990542Z" fill="#3F01A8"/>
</svg>
